<svg id="Layer_1" data-name="Layer 1" xmlns="http://www.w3.org/2000/svg" viewBox="0 0 800 800"><defs><style>.cls-1{font-size:89.31px;font-family:Gotham-Black, Gotham Black;font-weight:800;}.cls-1,.cls-2{fill:#173057;}.cls-3{fill:none;stroke:#173057;stroke-miterlimit:10;stroke-width:8px;}</style></defs><text class="cls-1" transform="translate(341.82 399.05)">DRIVE</text><path class="cls-2" d="M390.66,472.1l-39.32-49.6v49.6h-4V416.28h3.9l38.52,48.57V416.28h4V472.1Z"/><path class="cls-2" d="M457,472.1l-7.1-15.63H417l-7.1,15.63h-4.3l26-56.22h4l26,56.22Zm-23.52-51.67-14.76,32.3h29.43Z"/><path class="cls-2" d="M485.8,420.11v52h-4.14v-52H462.2v-3.83h43.06v3.83Z"/><path class="cls-2" d="M539,473.06c-16.91,0-28-13.48-28-28.71v-.16c0-15.23,11.24-28.87,28.15-28.87s28,13.48,28,28.71c.08.08.08.08,0,.16C567.15,459.42,555.91,473.06,539,473.06Zm23.84-28.87c0-13.79-10-25.12-23.84-25.12s-23.68,11.17-23.68,25v.16c0,13.8,10,25.12,23.84,25.12s23.68-11.16,23.68-25Z"/><path class="cls-2" d="M624.57,472.1l-39.31-49.6v49.6h-4V416.28h3.91l38.52,48.57V416.28h4V472.1Z"/><path class="cls-3" d="M227.65,447.64m67-78.36h0A65.75,65.75,0,0,0,240,340H187.49V471.51H240A65.76,65.76,0,0,0,294.7,369.28Z"/><path class="cls-2" d="M284.84,414.38a23.39,23.39,0,0,1-1.4,4.51l-1.1,3a33.22,33.22,0,0,1-5.22,9.7,41.87,41.87,0,0,1-29.81,15.94c-1,.08-2.1.12-3.16.12H226.91c0-6.12-1.57-20.91,4.28-26.76a22.08,22.08,0,0,1,15.68-6.5Z"/><path class="cls-2" d="M284.94,396.24H230a4.09,4.09,0,0,0-3.1,1.81h0l-5,4.63a11.56,11.56,0,0,1-7.85,3.08H207.2V363.87h37c1.06,0,2.12,0,3.16.12a41.89,41.89,0,0,1,37.63,32.25Z"/></svg>